REM DIRINDEX 1\2,1\3,1\4,1\5
REM DIRNAME folder01,folder02,folder03,folder04,folder05
TITLE ""
FILE "161.mp3" MP3
  TRACK 01 AUDIO
    TITLE "0:"
    INDEX 01 00:00:00
  TRACK 02 AUDIO
    TITLE "2:cjc046_4681"
    INDEX 01 00:00:13
  TRACK 03 AUDIO
    TITLE "0:"
    INDEX 01 00:01:19
  TRACK 04 AUDIO
    TITLE "3:cjc046_4682"
    INDEX 01 00:01:36
  TRACK 05 AUDIO
    TITLE "0:"
    INDEX 01 00:02:28
  TRACK 06 AUDIO
    TITLE "4:cjc046_4683"
    INDEX 01 00:02:45
  TRACK 07 AUDIO
    TITLE "0:"
    INDEX 01 00:03:55
  TRACK 08 AUDIO
    TITLE "2:cjc046_4684"
    INDEX 01 00:04:62
  TRACK 09 AUDIO
    TITLE "0:"
    INDEX 01 00:05:61
  TRACK 10 AUDIO
    TITLE "3:cjc046_4685"
    INDEX 01 00:06:02
  TRACK 11 AUDIO
    TITLE "0:"
    INDEX 01 00:08:13
  TRACK 12 AUDIO
    TITLE "4:cjc046_4686"
    INDEX 01 00:08:34
  TRACK 13 AUDIO
    TITLE "0:"
    INDEX 01 00:09:34
  TRACK 14 AUDIO
    TITLE "2:cjc046_4687"
    INDEX 01 00:10:43
  TRACK 15 AUDIO
    TITLE "0:"
    INDEX 01 00:11:60
  TRACK 16 AUDIO
    TITLE "3:cjc046_4688"
    INDEX 01 00:12:07
  TRACK 17 AUDIO
    TITLE "0:"
    INDEX 01 00:13:49
  TRACK 18 AUDIO
    TITLE "4:cjc046_4689"
    INDEX 01 00:13:65
  TRACK 19 AUDIO
    TITLE "0:"
    INDEX 01 00:15:07
  TRACK 20 AUDIO
    TITLE "2:cjc046_4690"
    INDEX 01 00:16:20
  TRACK 21 AUDIO
    TITLE "0:"
    INDEX 01 00:17:39
  TRACK 22 AUDIO
    TITLE "3:cjc046_4691"
    INDEX 01 00:17:59
  TRACK 23 AUDIO
    TITLE "0:"
    INDEX 01 00:19:18
  TRACK 24 AUDIO
    TITLE "4:cjc046_4692"
    INDEX 01 00:19:32
  TRACK 25 AUDIO
    TITLE "0:"
    INDEX 01 00:20:55
  TRACK 26 AUDIO
    TITLE "2:cjc046_4693"
    INDEX 01 00:21:62
  TRACK 27 AUDIO
    TITLE "0:"
    INDEX 01 00:23:10
  TRACK 28 AUDIO
    TITLE "3:cjc046_4694"
    INDEX 01 00:23:32
  TRACK 29 AUDIO
    TITLE "0:"
    INDEX 01 00:25:45
  TRACK 30 AUDIO
    TITLE "4:cjc046_4695"
    INDEX 01 00:25:62
  TRACK 31 AUDIO
    TITLE "0:"
    INDEX 01 00:27:10
  TRACK 32 AUDIO
    TITLE "2:cjc046_4696"
    INDEX 01 00:28:21
  TRACK 33 AUDIO
    TITLE "0:"
    INDEX 01 00:29:31
  TRACK 34 AUDIO
    TITLE "3:cjc046_4697"
    INDEX 01 00:29:48
  TRACK 35 AUDIO
    TITLE "0:"
    INDEX 01 00:30:63
  TRACK 36 AUDIO
    TITLE "4:cjc046_4698"
    INDEX 01 00:31:02
  TRACK 37 AUDIO
    TITLE "0:"
    INDEX 01 00:32:11
  TRACK 38 AUDIO
    TITLE "2:cjc046_4699"
    INDEX 01 00:33:21
  TRACK 39 AUDIO
    TITLE "0:"
    INDEX 01 00:34:18
  TRACK 40 AUDIO
    TITLE "3:cjc046_4700"
    INDEX 01 00:34:40
  TRACK 41 AUDIO
    TITLE "0:"
    INDEX 01 00:35:33
  TRACK 42 AUDIO
    TITLE "4:cjc046_4701"
    INDEX 01 00:35:55
  TRACK 43 AUDIO
    TITLE "0:"
    INDEX 01 00:36:52
  TRACK 44 AUDIO
    TITLE "2:cjc046_4702"
    INDEX 01 00:37:63
  TRACK 45 AUDIO
    TITLE "0:"
    INDEX 01 00:39:11
  TRACK 46 AUDIO
    TITLE "3:cjc046_4703"
    INDEX 01 00:39:27
  TRACK 47 AUDIO
    TITLE "0:"
    INDEX 01 00:40:58
  TRACK 48 AUDIO
    TITLE "4:cjc046_4704"
    INDEX 01 00:40:70
  TRACK 49 AUDIO
    TITLE "0:"
    INDEX 01 00:42:16
  TRACK 50 AUDIO
    TITLE "2:cjc046_4705"
    INDEX 01 00:43:21
  TRACK 51 AUDIO
    TITLE "0:"
    INDEX 01 00:44:30
  TRACK 52 AUDIO
    TITLE "3:cjc046_4706"
    INDEX 01 00:44:52
  TRACK 53 AUDIO
    TITLE "0:"
    INDEX 01 00:46:33
  TRACK 54 AUDIO
    TITLE "4:cjc046_4707"
    INDEX 01 00:46:45
  TRACK 55 AUDIO
    TITLE "0:"
    INDEX 01 00:47:58
  TRACK 56 AUDIO
    TITLE "2:cjc046_4708"
    INDEX 01 00:48:61
  TRACK 57 AUDIO
    TITLE "0:"
    INDEX 01 00:50:01
  TRACK 58 AUDIO
    TITLE "3:cjc046_4709"
    INDEX 01 00:50:23
  TRACK 59 AUDIO
    TITLE "0:"
    INDEX 01 00:51:28
  TRACK 60 AUDIO
    TITLE "4:cjc046_4710"
    INDEX 01 00:51:46
  TRACK 61 AUDIO
    TITLE "0:"
    INDEX 01 00:52:61
  TRACK 62 AUDIO
    TITLE "2:cjc046_4711"
    INDEX 01 00:53:64
  TRACK 63 AUDIO
    TITLE "0:"
    INDEX 01 00:55:06
  TRACK 64 AUDIO
    TITLE "3:cjc046_4712"
    INDEX 01 00:55:24
  TRACK 65 AUDIO
    TITLE "0:"
    INDEX 01 00:56:16
  TRACK 66 AUDIO
    TITLE "4:cjc046_4713"
    INDEX 01 00:56:27
  TRACK 67 AUDIO
    TITLE "0:"
    INDEX 01 00:57:45
  TRACK 68 AUDIO
    TITLE "2:cjc046_4714"
    INDEX 01 00:58:52
  TRACK 69 AUDIO
    TITLE "0:"
    INDEX 01 01:00:06
  TRACK 70 AUDIO
    TITLE "3:cjc046_4715"
    INDEX 01 01:00:21
  TRACK 71 AUDIO
    TITLE "0:"
    INDEX 01 01:01:31
  TRACK 72 AUDIO
    TITLE "4:cjc046_4716"
    INDEX 01 01:01:48
  TRACK 73 AUDIO
    TITLE "0:"
    INDEX 01 01:03:00
  TRACK 74 AUDIO
    TITLE "2:cjc046_4717"
    INDEX 01 01:04:13
  TRACK 75 AUDIO
    TITLE "0:"
    INDEX 01 01:05:07
  TRACK 76 AUDIO
    TITLE "3:cjc046_4718"
    INDEX 01 01:05:26
  TRACK 77 AUDIO
    TITLE "0:"
    INDEX 01 01:07:33
  TRACK 78 AUDIO
    TITLE "4:cjc046_4719"
    INDEX 01 01:07:53
  TRACK 79 AUDIO
    TITLE "0:"
    INDEX 01 01:08:46
  TRACK 80 AUDIO
    TITLE "2:cjc046_4720"
    INDEX 01 01:09:56
  TRACK 81 AUDIO
    TITLE "0:"
    INDEX 01 01:10:67
  TRACK 82 AUDIO
    TITLE "3:cjc046_4721"
    INDEX 01 01:11:11
  TRACK 83 AUDIO
    TITLE "0:"
    INDEX 01 01:12:28
  TRACK 84 AUDIO
    TITLE "4:cjc046_4722"
    INDEX 01 01:12:48
  TRACK 85 AUDIO
    TITLE "0:"
    INDEX 01 01:13:57
  TRACK 86 AUDIO
    TITLE "2:cjc046_4723"
    INDEX 01 01:14:70
  TRACK 87 AUDIO
    TITLE "0:"
    INDEX 01 01:16:12
  TRACK 88 AUDIO
    TITLE "3:cjc046_4724"
    INDEX 01 01:16:30
  TRACK 89 AUDIO
    TITLE "0:"
    INDEX 01 01:17:35
  TRACK 90 AUDIO
    TITLE "4:cjc046_4725"
    INDEX 01 01:17:51
  TRACK 91 AUDIO
    TITLE "0:"
    INDEX 01 01:18:66
  TRACK 92 AUDIO
    TITLE "2:cjc046_4726"
    INDEX 01 01:20:02
  TRACK 93 AUDIO
    TITLE "0:"
    INDEX 01 01:21:10
  TRACK 94 AUDIO
    TITLE "3:cjc046_4727"
    INDEX 01 01:21:29
  TRACK 95 AUDIO
    TITLE "0:"
    INDEX 01 01:22:37
  TRACK 96 AUDIO
    TITLE "4:cjc046_4728"
    INDEX 01 01:22:54
  TRACK 97 AUDIO
    TITLE "0:"
    INDEX 01 01:23:65
